<?xml version="1.0" standalone="no"?>
<!DOCTYPE svg PUBLIC "-//W3C//DTD SVG 20010904//EN"
 "http://www.w3.org/TR/2001/REC-SVG-20010904/DTD/svg10.dtd">
<svg version="1.0" xmlns="http://www.w3.org/2000/svg"
 width="500.000000pt" height="500.000000pt" viewBox="0 0 500.000000 500.000000"
 preserveAspectRatio="xMidYMid meet">

<g transform="translate(0.000000,500.000000) scale(0.100000,-0.100000)"
fill="#000000" stroke="none">
<path d="M2034 3720 c-232 -35 -421 -203 -490 -435 -26 -88 -25 -239 4 -330
56 -182 201 -334 375 -395 86 -30 238 -38 331 -16 229 54 419 255 454 481 l9
56 -140 -3 -140 -3 -13 -46 c-29 -98 -121 -193 -212 -219 -20 -5 -67 -10 -104
-10 -126 0 -242 87 -284 214 -23 69 -16 206 15 264 73 142 220 210 363 168 63
-18 163 -88 193 -135 11 -17 24 -31 28 -31 15 0 207 142 207 153 0 20 -81 118
-132 158 -130 103 -311 153 -464 129z m211 -55 c100 -25 195 -78 263 -146 34
-33 62 -66 62 -73 0 -7 -30 -34 -66 -60 l-65 -47 -57 52 c-31 29 -82 64 -112
78 -48 23 -68 26 -155 26 -85 0 -107 -4 -148 -23 -160 -79 -243 -281 -189
-458 82 -264 389 -348 590 -160 46 43 102 137 102 170 0 13 16 16 99 16 l99 0
-12 -48 c-55 -206 -222 -363 -437 -408 -276 -58 -561 123 -634 403 -19 74 -19
203 0 278 50 196 208 354 400 401 70 17 190 17 260 -1z"/>
<path d="M3419 3719 c-129 -19 -230 -70 -331 -167 -186 -179 -233 -473 -112
-703 70 -132 195 -241 336 -291 86 -30 284 -33 368 -4 208 71 366 243 409 444
18 88 28 82 -128 82 l-139 0 -7 -32 c-22 -98 -114 -203 -207 -234 -75 -24
-191 -16 -250 19 -57 33 -114 97 -141 156 -33 72 -31 207 4 282 33 69 95 134
158 162 35 16 66 22 126 22 104 0 173 -33 250 -118 36 -40 58 -56 67 -51 16 9
180 125 192 135 21 19 -108 162 -194 214 -114 69 -276 103 -401 84z m210 -54
c121 -29 251 -111 312 -196 24 -34 30 -26 -69 -95 l-52 -37 -60 57 c-88 84
-132 101 -260 101 -97 0 -109 -2 -158 -29 -67 -38 -126 -102 -160 -174 -24
-51 -27 -69 -27 -167 0 -99 3 -115 27 -165 143 -292 547 -270 664 36 l17 44
94 0 95 0 -7 -32 c-22 -104 -88 -213 -176 -292 -111 -99 -216 -139 -369 -139
-164 0 -272 45 -386 159 -223 222 -213 589 22 803 61 56 175 117 244 130 72
14 180 12 249 -4z"/>
<path d="M2699 2721 c-33 -32 -39 -45 -39 -80 0 -23 7 -55 15 -70 14 -28 14
-29 -37 -67 -69 -52 -90 -83 -95 -141 -11 -129 108 -171 238 -83 l44 29 20
-34 c16 -28 26 -35 53 -35 17 0 32 3 32 8 0 4 -14 30 -30 57 l-29 50 42 43
c41 42 41 44 22 58 -17 13 -22 11 -56 -22 l-36 -36 -37 66 -36 65 55 54 c47
46 55 58 55 91 0 54 -35 86 -96 86 -41 0 -51 -5 -85 -39z m109 -17 c40 -28 23
-79 -40 -119 -25 -15 -27 -15 -42 7 -32 45 -15 103 34 121 23 8 24 8 48 -9z
m-51 -271 c21 -38 39 -71 41 -74 2 -4 -18 -21 -44 -38 -85 -56 -158 -34 -158
46 0 31 8 43 53 85 29 26 56 48 61 48 4 0 26 -30 47 -67z"/>
</g>
</svg>
